<svg width="42" height="42" viewBox="0 0 42 42" fill="none" xmlns="http://www.w3.org/2000/svg">
<rect width="42" height="42" rx="10" fill="black" fill-opacity="0.5"/>
<path d="M18.5311 28.8302C18.416 28.7816 18.3203 28.6961 18.2592 28.5871C18.1981 28.4781 18.175 28.3519 18.1936 28.2283L19.2174 21.5627H16.5005C16.4143 21.565 16.3288 21.5475 16.2505 21.5115C16.1722 21.4756 16.1033 21.4221 16.0489 21.3552C15.9945 21.2884 15.9563 21.2099 15.937 21.1259C15.9178 21.042 15.9181 20.9547 15.938 20.8708L17.6255 13.5583C17.6552 13.4325 17.7273 13.3207 17.8298 13.2418C17.9322 13.1629 18.0587 13.1217 18.188 13.1252H23.813C23.897 13.1249 23.98 13.1435 24.056 13.1795C24.1319 13.2155 24.1988 13.2681 24.2517 13.3333C24.3054 13.3993 24.3434 13.4766 24.3629 13.5595C24.3824 13.6423 24.3829 13.7284 24.3642 13.8115L23.3911 18.1877H26.063C26.1684 18.1875 26.2718 18.2169 26.3613 18.2726C26.4508 18.3283 26.5228 18.408 26.5692 18.5027C26.6095 18.5936 26.625 18.6935 26.6142 18.7923C26.6033 18.8911 26.5665 18.9853 26.5074 19.0652L19.1949 28.6277C19.1454 28.701 19.0794 28.7615 19.0022 28.8045C18.925 28.8475 18.8388 28.8718 18.7505 28.8752C18.6752 28.8738 18.6008 28.8585 18.5311 28.8302ZM21.9849 19.3127L23.1099 14.2502H18.638L17.2092 20.4377H20.5336L19.6392 26.2202L24.938 19.3127H21.9849Z" fill="white"/>
</svg>
