<svg width="42" height="42" viewBox="0 0 42 42" fill="none" xmlns="http://www.w3.org/2000/svg">
<rect width="42" height="42" rx="10" fill="black" fill-opacity="0.5"/>
<path d="M25.0494 22.3651L23.9681 23.1828L23.1504 22.1016" stroke="white" stroke-linecap="round" stroke-linejoin="round"/>
<path d="M23.9079 23.102C24.2206 22.5009 24.3418 21.8185 24.255 21.1465C24.1683 20.4744 23.8779 19.8451 23.4228 19.3431C22.9677 18.8411 22.3698 18.4905 21.7095 18.3385C21.0492 18.1865 20.3581 18.2403 19.7293 18.4927M16.8789 20.825L17.9589 20.0086L18.7766 21.0886" stroke="white" stroke-linecap="round" stroke-linejoin="round"/>
<path d="M18.019 20.0898C17.7062 20.6909 17.5851 21.3734 17.6718 22.0454C17.7586 22.7174 18.049 23.3467 18.5041 23.8487C18.9592 24.3507 19.5571 24.7013 20.2174 24.8534C20.8777 25.0054 21.5687 24.9516 22.1975 24.6991" stroke="white" stroke-linecap="round" stroke-linejoin="round"/>
<path d="M29.3569 17.7849C29.3569 17.4439 29.2214 17.1169 28.9803 16.8757C28.7392 16.6346 28.4121 16.4992 28.0712 16.4992H25.4997L23.5712 13.9277H18.4283L16.4997 16.4992H13.9283C13.5873 16.4992 13.2603 16.6346 13.0192 16.8757C12.778 17.1169 12.6426 17.4439 12.6426 17.7849V26.7849C12.6426 27.1259 12.778 27.4529 13.0192 27.694C13.2603 27.9351 13.5873 28.0706 13.9283 28.0706H28.0712C28.4121 28.0706 28.7392 27.9351 28.9803 27.694C29.2214 27.4529 29.3569 27.1259 29.3569 26.7849V17.7849Z" stroke="white" stroke-linecap="round" stroke-linejoin="round"/>
</svg>
